<mxfile host="www.draw.io" modified="2020-01-26T20:39:36.848Z" agent="Mozilla/5.0 (Windows NT 10.0; Win64; x64) AppleWebKit/537.36 (KHTML, like Gecko) Chrome/79.0.3945.130 Safari/537.36" etag="bG2o2sSNJ-E_vqDWvZt9" version="12.5.8" type="github">
  <diagram id="DFZua9qALtrMMOBZ8jd8" name="Page-1">
    <mxGraphModel dx="1422" dy="745" grid="1" gridSize="10" guides="1" tooltips="1" connect="1" arrows="1" fold="1" page="1" pageScale="1" pageWidth="850" pageHeight="1100" math="0" shadow="0">
      <root>
        <mxCell id="0"/>
        <mxCell id="1" parent="0"/>
        <mxCell id="x30HOrNkff5IZDgMAQVA-1" value="MotionController" style="swimlane;fontStyle=0;childLayout=stackLayout;horizontal=1;startSize=26;fillColor=none;horizontalStack=0;resizeParent=1;resizeParentMax=0;resizeLast=0;collapsible=1;marginBottom=0;" vertex="1" parent="1">
          <mxGeometry x="408" y="296" width="140" height="104" as="geometry"/>
        </mxCell>
        <mxCell id="x30HOrNkff5IZDgMAQVA-2" value="+ field: setHome()" style="text;strokeColor=none;fillColor=none;align=left;verticalAlign=top;spacingLeft=4;spacingRight=4;overflow=hidden;rotatable=0;points=[[0,0.5],[1,0.5]];portConstraint=eastwest;" vertex="1" parent="x30HOrNkff5IZDgMAQVA-1">
          <mxGeometry y="26" width="140" height="26" as="geometry"/>
        </mxCell>
        <mxCell id="x30HOrNkff5IZDgMAQVA-3" value="+ field: setPosition()" style="text;strokeColor=none;fillColor=none;align=left;verticalAlign=top;spacingLeft=4;spacingRight=4;overflow=hidden;rotatable=0;points=[[0,0.5],[1,0.5]];portConstraint=eastwest;" vertex="1" parent="x30HOrNkff5IZDgMAQVA-1">
          <mxGeometry y="52" width="140" height="26" as="geometry"/>
        </mxCell>
        <mxCell id="x30HOrNkff5IZDgMAQVA-4" value="+ field: getPosition()" style="text;strokeColor=none;fillColor=none;align=left;verticalAlign=top;spacingLeft=4;spacingRight=4;overflow=hidden;rotatable=0;points=[[0,0.5],[1,0.5]];portConstraint=eastwest;" vertex="1" parent="x30HOrNkff5IZDgMAQVA-1">
          <mxGeometry y="78" width="140" height="26" as="geometry"/>
        </mxCell>
        <mxCell id="x30HOrNkff5IZDgMAQVA-5" value="StepperController" style="swimlane;fontStyle=0;childLayout=stackLayout;horizontal=1;startSize=26;fillColor=none;horizontalStack=0;resizeParent=1;resizeParentMax=0;resizeLast=0;collapsible=1;marginBottom=0;" vertex="1" parent="1">
          <mxGeometry x="480" y="440" width="140" height="104" as="geometry"/>
        </mxCell>
        <mxCell id="x30HOrNkff5IZDgMAQVA-6" value="void setMicroSteps()" style="text;strokeColor=none;fillColor=none;align=left;verticalAlign=top;spacingLeft=4;spacingRight=4;overflow=hidden;rotatable=0;points=[[0,0.5],[1,0.5]];portConstraint=eastwest;" vertex="1" parent="x30HOrNkff5IZDgMAQVA-5">
          <mxGeometry y="26" width="140" height="26" as="geometry"/>
        </mxCell>
        <mxCell id="x30HOrNkff5IZDgMAQVA-7" value="void home()" style="text;strokeColor=none;fillColor=none;align=left;verticalAlign=top;spacingLeft=4;spacingRight=4;overflow=hidden;rotatable=0;points=[[0,0.5],[1,0.5]];portConstraint=eastwest;" vertex="1" parent="x30HOrNkff5IZDgMAQVA-5">
          <mxGeometry y="52" width="140" height="26" as="geometry"/>
        </mxCell>
        <mxCell id="x30HOrNkff5IZDgMAQVA-8" value="void getPosition()" style="text;strokeColor=none;fillColor=none;align=left;verticalAlign=top;spacingLeft=4;spacingRight=4;overflow=hidden;rotatable=0;points=[[0,0.5],[1,0.5]];portConstraint=eastwest;" vertex="1" parent="x30HOrNkff5IZDgMAQVA-5">
          <mxGeometry y="78" width="140" height="26" as="geometry"/>
        </mxCell>
        <mxCell id="x30HOrNkff5IZDgMAQVA-9" value="PacketHandler" style="swimlane;fontStyle=0;childLayout=stackLayout;horizontal=1;startSize=26;fillColor=none;horizontalStack=0;resizeParent=1;resizeParentMax=0;resizeLast=0;collapsible=1;marginBottom=0;" vertex="1" parent="1">
          <mxGeometry x="140" y="336" width="140" height="104" as="geometry"/>
        </mxCell>
        <mxCell id="x30HOrNkff5IZDgMAQVA-10" value="+ void: rxPacket" style="text;strokeColor=none;fillColor=none;align=left;verticalAlign=top;spacingLeft=4;spacingRight=4;overflow=hidden;rotatable=0;points=[[0,0.5],[1,0.5]];portConstraint=eastwest;" vertex="1" parent="x30HOrNkff5IZDgMAQVA-9">
          <mxGeometry y="26" width="140" height="26" as="geometry"/>
        </mxCell>
        <mxCell id="x30HOrNkff5IZDgMAQVA-11" value="+ void: txPacket" style="text;strokeColor=none;fillColor=none;align=left;verticalAlign=top;spacingLeft=4;spacingRight=4;overflow=hidden;rotatable=0;points=[[0,0.5],[1,0.5]];portConstraint=eastwest;" vertex="1" parent="x30HOrNkff5IZDgMAQVA-9">
          <mxGeometry y="52" width="140" height="26" as="geometry"/>
        </mxCell>
        <mxCell id="x30HOrNkff5IZDgMAQVA-12" value="+ bool ping(ID);" style="text;strokeColor=none;fillColor=none;align=left;verticalAlign=top;spacingLeft=4;spacingRight=4;overflow=hidden;rotatable=0;points=[[0,0.5],[1,0.5]];portConstraint=eastwest;" vertex="1" parent="x30HOrNkff5IZDgMAQVA-9">
          <mxGeometry y="78" width="140" height="26" as="geometry"/>
        </mxCell>
        <mxCell id="x30HOrNkff5IZDgMAQVA-13" value="MagneticEncoder" style="swimlane;fontStyle=0;childLayout=stackLayout;horizontal=1;startSize=26;fillColor=none;horizontalStack=0;resizeParent=1;resizeParentMax=0;resizeLast=0;collapsible=1;marginBottom=0;" vertex="1" parent="1">
          <mxGeometry x="340" y="440" width="140" height="104" as="geometry"/>
        </mxCell>
        <mxCell id="x30HOrNkff5IZDgMAQVA-14" value="+ field: type" style="text;strokeColor=none;fillColor=none;align=left;verticalAlign=top;spacingLeft=4;spacingRight=4;overflow=hidden;rotatable=0;points=[[0,0.5],[1,0.5]];portConstraint=eastwest;" vertex="1" parent="x30HOrNkff5IZDgMAQVA-13">
          <mxGeometry y="26" width="140" height="26" as="geometry"/>
        </mxCell>
        <mxCell id="x30HOrNkff5IZDgMAQVA-15" value="+ field: type" style="text;strokeColor=none;fillColor=none;align=left;verticalAlign=top;spacingLeft=4;spacingRight=4;overflow=hidden;rotatable=0;points=[[0,0.5],[1,0.5]];portConstraint=eastwest;" vertex="1" parent="x30HOrNkff5IZDgMAQVA-13">
          <mxGeometry y="52" width="140" height="26" as="geometry"/>
        </mxCell>
        <mxCell id="x30HOrNkff5IZDgMAQVA-16" value="+ field: type" style="text;strokeColor=none;fillColor=none;align=left;verticalAlign=top;spacingLeft=4;spacingRight=4;overflow=hidden;rotatable=0;points=[[0,0.5],[1,0.5]];portConstraint=eastwest;" vertex="1" parent="x30HOrNkff5IZDgMAQVA-13">
          <mxGeometry y="78" width="140" height="26" as="geometry"/>
        </mxCell>
        <mxCell id="x30HOrNkff5IZDgMAQVA-23" style="edgeStyle=orthogonalEdgeStyle;rounded=0;orthogonalLoop=1;jettySize=auto;html=1;exitX=0.25;exitY=1;exitDx=0;exitDy=0;entryX=0.5;entryY=0;entryDx=0;entryDy=0;" edge="1" parent="1" source="x30HOrNkff5IZDgMAQVA-17" target="x30HOrNkff5IZDgMAQVA-9">
          <mxGeometry relative="1" as="geometry"/>
        </mxCell>
        <mxCell id="x30HOrNkff5IZDgMAQVA-24" value="receive communication" style="text;html=1;align=center;verticalAlign=middle;resizable=0;points=[];labelBackgroundColor=#ffffff;" vertex="1" connectable="0" parent="x30HOrNkff5IZDgMAQVA-23">
          <mxGeometry x="0.3572" y="-2" relative="1" as="geometry">
            <mxPoint x="2" y="-18" as="offset"/>
          </mxGeometry>
        </mxCell>
        <mxCell id="x30HOrNkff5IZDgMAQVA-26" style="edgeStyle=orthogonalEdgeStyle;rounded=0;orthogonalLoop=1;jettySize=auto;html=1;exitX=0.75;exitY=1;exitDx=0;exitDy=0;entryX=0.5;entryY=0;entryDx=0;entryDy=0;" edge="1" parent="1" source="x30HOrNkff5IZDgMAQVA-17" target="x30HOrNkff5IZDgMAQVA-1">
          <mxGeometry relative="1" as="geometry"/>
        </mxCell>
        <mxCell id="x30HOrNkff5IZDgMAQVA-17" value="MainLoop" style="html=1;" vertex="1" parent="1">
          <mxGeometry x="80" y="190" width="530" height="20" as="geometry"/>
        </mxCell>
        <mxCell id="x30HOrNkff5IZDgMAQVA-19" value="ConfigFile.h" style="swimlane;fontStyle=0;childLayout=stackLayout;horizontal=1;startSize=26;fillColor=none;horizontalStack=0;resizeParent=1;resizeParentMax=0;resizeLast=0;collapsible=1;marginBottom=0;" vertex="1" parent="1">
          <mxGeometry x="80" y="10" width="140" height="104" as="geometry"/>
        </mxCell>
        <mxCell id="x30HOrNkff5IZDgMAQVA-20" value="+ field: ID" style="text;strokeColor=none;fillColor=none;align=left;verticalAlign=top;spacingLeft=4;spacingRight=4;overflow=hidden;rotatable=0;points=[[0,0.5],[1,0.5]];portConstraint=eastwest;" vertex="1" parent="x30HOrNkff5IZDgMAQVA-19">
          <mxGeometry y="26" width="140" height="26" as="geometry"/>
        </mxCell>
        <mxCell id="x30HOrNkff5IZDgMAQVA-21" value="+ field: BaudRate" style="text;strokeColor=none;fillColor=none;align=left;verticalAlign=top;spacingLeft=4;spacingRight=4;overflow=hidden;rotatable=0;points=[[0,0.5],[1,0.5]];portConstraint=eastwest;" vertex="1" parent="x30HOrNkff5IZDgMAQVA-19">
          <mxGeometry y="52" width="140" height="26" as="geometry"/>
        </mxCell>
        <mxCell id="x30HOrNkff5IZDgMAQVA-22" value="+ field: define Pins" style="text;strokeColor=none;fillColor=none;align=left;verticalAlign=top;spacingLeft=4;spacingRight=4;overflow=hidden;rotatable=0;points=[[0,0.5],[1,0.5]];portConstraint=eastwest;" vertex="1" parent="x30HOrNkff5IZDgMAQVA-19">
          <mxGeometry y="78" width="140" height="26" as="geometry"/>
        </mxCell>
        <mxCell id="x30HOrNkff5IZDgMAQVA-25" style="edgeStyle=orthogonalEdgeStyle;rounded=0;orthogonalLoop=1;jettySize=auto;html=1;exitX=0.514;exitY=1.038;exitDx=0;exitDy=0;entryX=0.25;entryY=0;entryDx=0;entryDy=0;exitPerimeter=0;" edge="1" parent="1" source="x30HOrNkff5IZDgMAQVA-22" target="x30HOrNkff5IZDgMAQVA-17">
          <mxGeometry relative="1" as="geometry"/>
        </mxCell>
        <mxCell id="x30HOrNkff5IZDgMAQVA-28" style="edgeStyle=orthogonalEdgeStyle;rounded=0;orthogonalLoop=1;jettySize=auto;html=1;exitX=0.293;exitY=1.038;exitDx=0;exitDy=0;entryX=0.5;entryY=0;entryDx=0;entryDy=0;exitPerimeter=0;" edge="1" parent="1" source="x30HOrNkff5IZDgMAQVA-4" target="x30HOrNkff5IZDgMAQVA-13">
          <mxGeometry relative="1" as="geometry"/>
        </mxCell>
        <mxCell id="x30HOrNkff5IZDgMAQVA-27" style="edgeStyle=orthogonalEdgeStyle;rounded=0;orthogonalLoop=1;jettySize=auto;html=1;exitX=0.729;exitY=1.038;exitDx=0;exitDy=0;entryX=0.5;entryY=0;entryDx=0;entryDy=0;exitPerimeter=0;" edge="1" parent="1" source="x30HOrNkff5IZDgMAQVA-4" target="x30HOrNkff5IZDgMAQVA-5">
          <mxGeometry relative="1" as="geometry"/>
        </mxCell>
        <mxCell id="x30HOrNkff5IZDgMAQVA-29" style="edgeStyle=orthogonalEdgeStyle;rounded=0;orthogonalLoop=1;jettySize=auto;html=1;exitX=1;exitY=0.5;exitDx=0;exitDy=0;entryX=0.453;entryY=1.1;entryDx=0;entryDy=0;entryPerimeter=0;" edge="1" parent="1" source="x30HOrNkff5IZDgMAQVA-11" target="x30HOrNkff5IZDgMAQVA-17">
          <mxGeometry relative="1" as="geometry"/>
        </mxCell>
        <mxCell id="x30HOrNkff5IZDgMAQVA-30" value="decoded instruction" style="text;html=1;align=center;verticalAlign=middle;resizable=0;points=[];labelBackgroundColor=#ffffff;" vertex="1" connectable="0" parent="x30HOrNkff5IZDgMAQVA-29">
          <mxGeometry x="-0.0218" y="-4" relative="1" as="geometry">
            <mxPoint x="-4.03" y="-19" as="offset"/>
          </mxGeometry>
        </mxCell>
      </root>
    </mxGraphModel>
  </diagram>
</mxfile>
